<svg  viewBox="0 0 52 53" fill="none" xmlns="http://www.w3.org/2000/svg">
<g clip-path="url(#clip0_1076_5338)">
<path d="M47.7747 27.359C47.8453 34.9965 54.4753 37.5384 54.5485 37.5709C54.4924 37.7496 53.4894 41.193 51.0559 44.7489C48.9524 47.8234 46.7688 50.8865 43.3299 50.9507C39.9507 51.0125 38.864 48.9463 35.0001 48.9463C31.1375 48.9463 29.9305 50.8865 26.7313 51.0125C23.4114 51.1384 20.8833 47.6873 18.7623 44.6246C14.4284 38.3586 11.1163 26.9182 15.5635 19.1958C17.7727 15.3608 21.7214 12.9326 26.007 12.8701C29.2667 12.8079 32.3437 15.063 34.3363 15.063C36.3277 15.063 40.0669 12.3509 43.9977 12.749C45.6435 12.8177 50.2625 13.4136 53.2286 17.7556C52.9901 17.9039 47.7174 20.9735 47.7747 27.359ZM41.4237 8.60403C43.1861 6.47081 44.3723 3.50031 44.0489 0.545654C41.5082 0.647623 38.4362 2.2385 36.6142 4.3709C34.981 6.25875 33.551 9.28125 33.9366 12.1774C36.7685 12.3968 39.661 10.7385 41.4237 8.60403Z" fill="white"/>
</g>
<defs>
<clipPath id="clip0_1076_5338">
<rect width="52" height="52" fill="white" transform="translate(0 0.780029)"/>
</clipPath>
</defs>
</svg>
