<svg width="186" height="84" viewBox="0 0 186 84" fill="none" xmlns="http://www.w3.org/2000/svg">
<rect y="0.780029" width="186" height="83" rx="10" fill="#7D0202"/>
<path d="M88.7902 28.2521C88.5164 27.7249 88.1362 27.3295 87.6496 27.0659C87.1629 26.7921 86.6002 26.6553 85.9615 26.6553C85.2619 26.6553 84.6384 26.8124 84.0909 27.1267C83.5434 27.441 83.1126 27.8871 82.7983 28.465C82.4941 29.0429 82.342 29.7121 82.342 30.4725C82.342 31.2329 82.4941 31.9071 82.7983 32.4951C83.1126 33.073 83.5434 33.5191 84.0909 33.8334C84.6384 34.1477 85.2619 34.3049 85.9615 34.3049C86.9044 34.3049 87.6699 34.0413 88.2579 33.514C88.8459 32.9868 89.2059 32.2721 89.3377 31.3697H85.3684V29.9858H91.193V31.3393C91.0815 32.1605 90.7875 32.9159 90.311 33.6053C89.8446 34.2947 89.2312 34.8473 88.4708 35.263C87.7206 35.6685 86.8841 35.8713 85.9615 35.8713C84.9679 35.8713 84.0605 35.6432 83.2393 35.1869C82.4181 34.7205 81.7641 34.0767 81.2775 33.2555C80.801 32.4343 80.5627 31.5066 80.5627 30.4725C80.5627 29.4383 80.801 28.5106 81.2775 27.6894C81.7641 26.8682 82.4181 26.2295 83.2393 25.7732C84.0707 25.3068 84.9781 25.0737 85.9615 25.0737C87.0869 25.0737 88.0855 25.3525 88.9575 25.9101C89.8395 26.4576 90.4783 27.2382 90.8737 28.2521H88.7902ZM100.583 31.3849C100.583 31.6992 100.563 31.9831 100.522 32.2366H94.1196C94.1703 32.9057 94.4187 33.4431 94.8648 33.8486C95.3109 34.2542 95.8584 34.4569 96.5072 34.4569C97.44 34.4569 98.099 34.0666 98.4843 33.2859H100.355C100.101 34.0565 99.6401 34.6901 98.9709 35.1869C98.3119 35.6736 97.4907 35.9169 96.5072 35.9169C95.7063 35.9169 94.9865 35.7395 94.3477 35.3846C93.7191 35.0196 93.2223 34.5127 92.8573 33.8638C92.5025 33.2048 92.3251 32.4444 92.3251 31.5826C92.3251 30.7209 92.4974 29.9655 92.8421 29.3167C93.197 28.6577 93.6887 28.1507 94.3173 27.7959C94.956 27.441 95.686 27.2636 96.5072 27.2636C97.2981 27.2636 98.0027 27.436 98.6211 27.7807C99.2396 28.1254 99.7212 28.612 100.066 29.2406C100.411 29.8591 100.583 30.5739 100.583 31.3849ZM98.7732 30.8375C98.7631 30.1987 98.535 29.6867 98.0889 29.3015C97.6428 28.9162 97.0902 28.7236 96.4312 28.7236C95.833 28.7236 95.321 28.9162 94.8952 29.3015C94.4694 29.6766 94.2159 30.1886 94.1348 30.8375H98.7732ZM104.312 28.8148V33.4532C104.312 33.7675 104.383 33.9956 104.525 34.1376C104.677 34.2694 104.93 34.3353 105.285 34.3353H106.35V35.78H104.981C104.2 35.78 103.602 35.5975 103.186 35.2325C102.771 34.8676 102.563 34.2744 102.563 33.4532V28.8148H101.574V27.4005H102.563V25.317H104.312V27.4005H106.35V28.8148H104.312ZM112.78 26.2903C112.466 26.2903 112.202 26.1838 111.989 25.9709C111.776 25.758 111.67 25.4944 111.67 25.1801C111.67 24.8658 111.776 24.6022 111.989 24.3893C112.202 24.1764 112.466 24.0699 112.78 24.0699C113.084 24.0699 113.343 24.1764 113.556 24.3893C113.769 24.6022 113.875 24.8658 113.875 25.1801C113.875 25.4944 113.769 25.758 113.556 25.9709C113.343 26.1838 113.084 26.2903 112.78 26.2903ZM113.632 27.4005V35.78H111.898V27.4005H113.632ZM117.931 28.8148V33.4532C117.931 33.7675 118.002 33.9956 118.143 34.1376C118.296 34.2694 118.549 34.3353 118.904 34.3353H119.968V35.78H118.6C117.819 35.78 117.221 35.5975 116.805 35.2325C116.39 34.8676 116.182 34.2744 116.182 33.4532V28.8148H115.193V27.4005H116.182V25.317H117.931V27.4005H119.968V28.8148H117.931ZM129.152 35.9169C128.361 35.9169 127.646 35.7395 127.007 35.3846C126.368 35.0196 125.867 34.5127 125.502 33.8638C125.137 33.2048 124.954 32.4444 124.954 31.5826C124.954 30.731 125.142 29.9757 125.517 29.3167C125.892 28.6577 126.404 28.1507 127.053 27.7959C127.702 27.441 128.427 27.2636 129.228 27.2636C130.029 27.2636 130.753 27.441 131.402 27.7959C132.051 28.1507 132.563 28.6577 132.938 29.3167C133.313 29.9757 133.501 30.731 133.501 31.5826C133.501 32.4343 133.308 33.1896 132.923 33.8486C132.538 34.5076 132.011 35.0196 131.341 35.3846C130.682 35.7395 129.952 35.9169 129.152 35.9169ZM129.152 34.4113C129.598 34.4113 130.013 34.3049 130.399 34.092C130.794 33.879 131.113 33.5597 131.357 33.1339C131.6 32.708 131.722 32.191 131.722 31.5826C131.722 30.9743 131.605 30.4623 131.372 30.0466C131.139 29.6208 130.829 29.3015 130.444 29.0885C130.059 28.8756 129.643 28.7692 129.197 28.7692C128.751 28.7692 128.335 28.8756 127.95 29.0885C127.575 29.3015 127.276 29.6208 127.053 30.0466C126.83 30.4623 126.718 30.9743 126.718 31.5826C126.718 32.485 126.946 33.1845 127.403 33.6813C127.869 34.168 128.452 34.4113 129.152 34.4113ZM139.443 27.2636C140.102 27.2636 140.69 27.4005 141.207 27.6742C141.734 27.9479 142.145 28.3535 142.439 28.8908C142.733 29.4282 142.88 30.0771 142.88 30.8375V35.78H141.161V31.096C141.161 30.3457 140.974 29.7729 140.598 29.3775C140.223 28.9719 139.711 28.7692 139.062 28.7692C138.414 28.7692 137.897 28.9719 137.511 29.3775C137.136 29.7729 136.949 30.3457 136.949 31.096V35.78H135.215V27.4005H136.949V28.3586C137.232 28.0139 137.592 27.7452 138.028 27.5525C138.474 27.3599 138.946 27.2636 139.443 27.2636Z" fill="white"/>
<path d="M59.088 49.7C58.822 49.21 58.437 48.839 57.933 48.587C57.443 48.321 56.862 48.188 56.19 48.188C55.028 48.188 54.097 48.573 53.397 49.343C52.697 50.099 52.347 51.114 52.347 52.388C52.347 53.746 52.711 54.81 53.439 55.58C54.181 56.336 55.196 56.714 56.484 56.714C57.366 56.714 58.108 56.49 58.71 56.042C59.326 55.594 59.774 54.95 60.054 54.11H55.497V51.464H63.309V54.803C63.043 55.699 62.588 56.532 61.944 57.302C61.314 58.072 60.509 58.695 59.529 59.171C58.549 59.647 57.443 59.885 56.211 59.885C54.755 59.885 53.453 59.57 52.305 58.94C51.171 58.296 50.282 57.407 49.638 56.273C49.008 55.139 48.693 53.844 48.693 52.388C48.693 50.932 49.008 49.637 49.638 48.503C50.282 47.355 51.171 46.466 52.305 45.836C53.439 45.192 54.734 44.87 56.19 44.87C57.954 44.87 59.438 45.297 60.642 46.151C61.86 47.005 62.665 48.188 63.057 49.7H59.088ZM70.6321 59.948C69.4841 59.948 68.4481 59.703 67.5241 59.213C66.6141 58.723 65.8931 58.023 65.3611 57.113C64.8431 56.203 64.5841 55.139 64.5841 53.921C64.5841 52.717 64.8501 51.66 65.3821 50.75C65.9141 49.826 66.6421 49.119 67.5661 48.629C68.4901 48.139 69.5261 47.894 70.6741 47.894C71.8221 47.894 72.8581 48.139 73.7821 48.629C74.7061 49.119 75.4341 49.826 75.9661 50.75C76.4981 51.66 76.7641 52.717 76.7641 53.921C76.7641 55.125 76.4911 56.189 75.9451 57.113C75.4131 58.023 74.6781 58.723 73.7401 59.213C72.8161 59.703 71.7801 59.948 70.6321 59.948ZM70.6321 56.84C71.3181 56.84 71.8991 56.588 72.3751 56.084C72.8651 55.58 73.1101 54.859 73.1101 53.921C73.1101 52.983 72.8721 52.262 72.3961 51.758C71.9341 51.254 71.3601 51.002 70.6741 51.002C69.9741 51.002 69.3931 51.254 68.9311 51.758C68.4691 52.248 68.2381 52.969 68.2381 53.921C68.2381 54.859 68.4621 55.58 68.9101 56.084C69.3721 56.588 69.9461 56.84 70.6321 56.84ZM84.0032 59.948C82.8552 59.948 81.8192 59.703 80.8952 59.213C79.9852 58.723 79.2642 58.023 78.7322 57.113C78.2142 56.203 77.9552 55.139 77.9552 53.921C77.9552 52.717 78.2212 51.66 78.7532 50.75C79.2852 49.826 80.0132 49.119 80.9372 48.629C81.8612 48.139 82.8972 47.894 84.0452 47.894C85.1932 47.894 86.2292 48.139 87.1532 48.629C88.0772 49.119 88.8052 49.826 89.3372 50.75C89.8692 51.66 90.1352 52.717 90.1352 53.921C90.1352 55.125 89.8622 56.189 89.3162 57.113C88.7842 58.023 88.0492 58.723 87.1112 59.213C86.1872 59.703 85.1512 59.948 84.0032 59.948ZM84.0032 56.84C84.6892 56.84 85.2702 56.588 85.7462 56.084C86.2362 55.58 86.4812 54.859 86.4812 53.921C86.4812 52.983 86.2432 52.262 85.7672 51.758C85.3052 51.254 84.7312 51.002 84.0452 51.002C83.3452 51.002 82.7642 51.254 82.3022 51.758C81.8402 52.248 81.6092 52.969 81.6092 53.921C81.6092 54.859 81.8332 55.58 82.2812 56.084C82.7432 56.588 83.3172 56.84 84.0032 56.84ZM96.4923 47.894C97.3183 47.894 98.0393 48.062 98.6553 48.398C99.2853 48.734 99.7683 49.175 100.104 49.721V48.062H103.695V59.759C103.695 60.837 103.478 61.81 103.044 62.678C102.624 63.56 101.973 64.26 101.091 64.778C100.223 65.296 99.1383 65.555 97.8363 65.555C96.1003 65.555 94.6933 65.142 93.6153 64.316C92.5373 63.504 91.9213 62.398 91.7673 60.998H95.3163C95.4283 61.446 95.6943 61.796 96.1143 62.048C96.5343 62.314 97.0523 62.447 97.6683 62.447C98.4103 62.447 98.9983 62.23 99.4323 61.796C99.8803 61.376 100.104 60.697 100.104 59.759V58.1C99.7543 58.646 99.2713 59.094 98.6553 59.444C98.0393 59.78 97.3183 59.948 96.4923 59.948C95.5263 59.948 94.6513 59.703 93.8673 59.213C93.0833 58.709 92.4603 58.002 91.9983 57.092C91.5503 56.168 91.3263 55.104 91.3263 53.9C91.3263 52.696 91.5503 51.639 91.9983 50.729C92.4603 49.819 93.0833 49.119 93.8673 48.629C94.6513 48.139 95.5263 47.894 96.4923 47.894ZM100.104 53.921C100.104 53.025 99.8523 52.318 99.3483 51.8C98.8583 51.282 98.2563 51.023 97.5423 51.023C96.8283 51.023 96.2193 51.282 95.7153 51.8C95.2253 52.304 94.9803 53.004 94.9803 53.9C94.9803 54.796 95.2253 55.51 95.7153 56.042C96.2193 56.56 96.8283 56.819 97.5423 56.819C98.2563 56.819 98.8583 56.56 99.3483 56.042C99.8523 55.524 100.104 54.817 100.104 53.921ZM109.884 44.24V59.78H106.293V44.24H109.884ZM123.533 53.732C123.533 54.068 123.512 54.418 123.47 54.782H115.343C115.399 55.51 115.63 56.07 116.036 56.462C116.456 56.84 116.967 57.029 117.569 57.029C118.465 57.029 119.088 56.651 119.438 55.895H123.26C123.064 56.665 122.707 57.358 122.189 57.974C121.685 58.59 121.048 59.073 120.278 59.423C119.508 59.773 118.647 59.948 117.695 59.948C116.547 59.948 115.525 59.703 114.629 59.213C113.733 58.723 113.033 58.023 112.529 57.113C112.025 56.203 111.773 55.139 111.773 53.921C111.773 52.703 112.018 51.639 112.508 50.729C113.012 49.819 113.712 49.119 114.608 48.629C115.504 48.139 116.533 47.894 117.695 47.894C118.829 47.894 119.837 48.132 120.719 48.608C121.601 49.084 122.287 49.763 122.777 50.645C123.281 51.527 123.533 52.556 123.533 53.732ZM119.858 52.787C119.858 52.171 119.648 51.681 119.228 51.317C118.808 50.953 118.283 50.771 117.653 50.771C117.051 50.771 116.54 50.946 116.12 51.296C115.714 51.646 115.462 52.143 115.364 52.787H119.858ZM141.112 49.784C141.112 50.638 140.916 51.422 140.524 52.136C140.132 52.836 139.53 53.403 138.718 53.837C137.906 54.271 136.898 54.488 135.694 54.488H133.468V59.78H129.877V45.038H135.694C136.87 45.038 137.864 45.241 138.676 45.647C139.488 46.053 140.097 46.613 140.503 47.327C140.909 48.041 141.112 48.86 141.112 49.784ZM135.421 51.632C136.107 51.632 136.618 51.471 136.954 51.149C137.29 50.827 137.458 50.372 137.458 49.784C137.458 49.196 137.29 48.741 136.954 48.419C136.618 48.097 136.107 47.936 135.421 47.936H133.468V51.632H135.421ZM146.573 44.24V59.78H142.982V44.24H146.573ZM148.461 53.9C148.461 52.696 148.685 51.639 149.133 50.729C149.595 49.819 150.218 49.119 151.002 48.629C151.786 48.139 152.661 47.894 153.627 47.894C154.453 47.894 155.174 48.062 155.79 48.398C156.42 48.734 156.903 49.175 157.239 49.721V48.062H160.83V59.78H157.239V58.121C156.889 58.667 156.399 59.108 155.769 59.444C155.153 59.78 154.432 59.948 153.606 59.948C152.654 59.948 151.786 59.703 151.002 59.213C150.218 58.709 149.595 58.002 149.133 57.092C148.685 56.168 148.461 55.104 148.461 53.9ZM157.239 53.921C157.239 53.025 156.987 52.318 156.483 51.8C155.993 51.282 155.391 51.023 154.677 51.023C153.963 51.023 153.354 51.282 152.85 51.8C152.36 52.304 152.115 53.004 152.115 53.9C152.115 54.796 152.36 55.51 152.85 56.042C153.354 56.56 153.963 56.819 154.677 56.819C155.391 56.819 155.993 56.56 156.483 56.042C156.987 55.524 157.239 54.817 157.239 53.921ZM175.398 48.062L168.048 65.345H164.184L166.872 59.381L162.105 48.062H166.116L168.825 55.391L171.513 48.062H175.398Z" fill="white"/>
<g clip-path="url(#clip0_1076_5324)">
<path d="M26.4759 41.3723L10.1465 58.4806C10.3299 59.1305 10.6594 59.7298 11.1099 60.2328C11.5604 60.7358 12.1199 61.1291 12.7458 61.3827C13.3716 61.6363 14.0471 61.7435 14.7206 61.696C15.3942 61.6485 16.048 61.4477 16.6321 61.1088L35.0057 50.6444L26.4759 41.3723Z" fill="#EA4335"/>
<path d="M42.9866 38.4643L35.0412 33.9133L26.0977 41.7616L35.0776 50.6199L42.9625 46.1177C43.661 45.752 44.246 45.202 44.6543 44.5274C45.0625 43.8529 45.2783 43.0794 45.2783 42.291C45.2783 41.5025 45.0625 40.7291 44.6543 40.0545C44.246 39.3799 43.661 38.83 42.9625 38.4642H42.9869L42.9866 38.4643Z" fill="#FBBC04"/>
<path d="M10.1461 26.0166C10.0474 26.3815 9.99829 26.758 10 27.136V57.3613C10.0011 57.7392 10.0502 58.1154 10.1461 58.4809L27.0353 41.8106L10.1461 26.0166Z" fill="#4285F4"/>
<path d="M26.5976 42.2489L35.0423 33.9138L16.693 23.4006C16.0026 22.9963 15.2174 22.7821 14.4173 22.78C12.4319 22.7762 10.6864 24.0939 10.1465 26.0046L26.5976 42.2489Z" fill="#34A853"/>
</g>
<defs>
<clipPath id="clip0_1076_5324">
<rect width="35.2792" height="39" fill="white" transform="translate(10 22.78)"/>
</clipPath>
</defs>
</svg>
