<svg width="188" height="84" viewBox="0 0 188 84" fill="none" xmlns="http://www.w3.org/2000/svg">
<rect x="2" y="0.780029" width="186" height="83" rx="10" fill="#7D0202"/>
<g clip-path="url(#clip0_1076_5336)">
<path d="M50.7747 43.359C50.8453 50.9965 57.4753 53.5384 57.5485 53.5709C57.4924 53.7496 56.4894 57.193 54.0559 60.7489C51.9524 63.8234 49.7688 66.8865 46.3299 66.9507C42.9507 67.0125 41.864 64.9463 38.0001 64.9463C34.1375 64.9463 32.9305 66.8865 29.7313 67.0125C26.4114 67.1384 23.8833 63.6873 21.7623 60.6246C17.4284 54.3586 14.1163 42.9182 18.5635 35.1958C20.7727 31.3608 24.7214 28.9326 29.007 28.8701C32.2667 28.8079 35.3437 31.063 37.3363 31.063C39.3277 31.063 43.0669 28.3509 46.9977 28.749C48.6435 28.8177 53.2625 29.4136 56.2286 33.7556C55.9901 33.9039 50.7174 36.9735 50.7747 43.359ZM44.4237 24.604C46.1861 22.4708 47.3723 19.5003 47.0489 16.5457C44.5082 16.6476 41.4362 18.2385 39.6142 20.3709C37.981 22.2587 36.551 25.2812 36.9366 28.1774C39.7685 28.3968 42.661 26.7385 44.4237 24.604Z" fill="white"/>
</g>
<path d="M67.7985 24.989C68.7345 24.989 69.5525 25.1703 70.2524 25.5329C70.9608 25.8871 71.5047 26.4014 71.8841 27.0761C72.272 27.7422 72.466 28.5223 72.466 29.4161C72.466 30.31 72.272 31.0858 71.8841 31.7435C71.5047 32.4013 70.9608 32.9072 70.2524 33.2614C69.5525 33.6072 68.7345 33.78 67.7985 33.78H64.9272V24.989H67.7985ZM67.7985 32.6037C68.8273 32.6037 69.6158 32.3254 70.1639 31.7688C70.712 31.2123 70.9861 30.428 70.9861 29.4161C70.9861 28.3958 70.712 27.5989 70.1639 27.0255C69.6158 26.452 68.8273 26.1653 67.7985 26.1653H66.3692V32.6037H67.7985ZM76.9182 33.8939C76.2605 33.8939 75.666 33.7463 75.1347 33.4512C74.6035 33.1476 74.1861 32.7259 73.8825 32.1863C73.5789 31.6381 73.4271 31.0057 73.4271 30.2889C73.4271 29.5806 73.5831 28.9523 73.8951 28.4042C74.2071 27.8561 74.633 27.4345 75.1727 27.1393C75.7124 26.8442 76.3153 26.6966 76.9815 26.6966C77.6477 26.6966 78.2506 26.8442 78.7903 27.1393C79.33 27.4345 79.7558 27.8561 80.0678 28.4042C80.3798 28.9523 80.5359 29.5806 80.5359 30.2889C80.5359 30.9973 80.3756 31.6255 80.0552 32.1736C79.7347 32.7217 79.2962 33.1476 78.7397 33.4512C78.1916 33.7463 77.5844 33.8939 76.9182 33.8939ZM76.9182 32.6416C77.2893 32.6416 77.635 32.5531 77.9555 32.376C78.2843 32.1989 78.55 31.9333 78.7523 31.5791C78.9547 31.2249 79.0559 30.7949 79.0559 30.2889C79.0559 29.7829 78.9589 29.3571 78.765 29.0114C78.571 28.6572 78.3138 28.3916 77.9934 28.2145C77.673 28.0374 77.3272 27.9488 76.9562 27.9488C76.5851 27.9488 76.2394 28.0374 75.919 28.2145C75.607 28.3916 75.3582 28.6572 75.1727 29.0114C74.9872 29.3571 74.8944 29.7829 74.8944 30.2889C74.8944 31.0394 75.0841 31.6213 75.4636 32.0345C75.8515 32.4392 76.3364 32.6416 76.9182 32.6416ZM91.3216 26.8104L89.1586 33.78H87.6407L86.2367 28.6319L84.8327 33.78H83.3148L81.1391 26.8104H82.6064L84.0611 32.4139L85.541 26.8104H87.0462L88.4629 32.3886L89.9049 26.8104H91.3216ZM95.9156 26.6966C96.4638 26.6966 96.9529 26.8104 97.3829 27.0381C97.8214 27.2658 98.1629 27.6031 98.4075 28.05C98.652 28.497 98.7743 29.0367 98.7743 29.6691V33.78H97.345V29.8841C97.345 29.2601 97.189 28.7837 96.877 28.4548C96.565 28.1175 96.1391 27.9488 95.5994 27.9488C95.0597 27.9488 94.6297 28.1175 94.3092 28.4548C93.9972 28.7837 93.8412 29.2601 93.8412 29.8841V33.78H92.3992V26.8104H93.8412V27.6073C94.0773 27.3206 94.3767 27.0971 94.7393 26.9369C95.1103 26.7767 95.5024 26.6966 95.9156 26.6966ZM102.056 24.4198V33.78H100.614V24.4198H102.056ZM106.972 33.8939C106.314 33.8939 105.72 33.7463 105.188 33.4512C104.657 33.1476 104.24 32.7259 103.936 32.1863C103.633 31.6381 103.481 31.0057 103.481 30.2889C103.481 29.5806 103.637 28.9523 103.949 28.4042C104.261 27.8561 104.687 27.4345 105.226 27.1393C105.766 26.8442 106.369 26.6966 107.035 26.6966C107.701 26.6966 108.304 26.8442 108.844 27.1393C109.384 27.4345 109.81 27.8561 110.122 28.4042C110.434 28.9523 110.59 29.5806 110.59 30.2889C110.59 30.9973 110.429 31.6255 110.109 32.1736C109.788 32.7217 109.35 33.1476 108.793 33.4512C108.245 33.7463 107.638 33.8939 106.972 33.8939ZM106.972 32.6416C107.343 32.6416 107.689 32.5531 108.009 32.376C108.338 32.1989 108.604 31.9333 108.806 31.5791C109.008 31.2249 109.11 30.7949 109.11 30.2889C109.11 29.7829 109.013 29.3571 108.819 29.0114C108.625 28.6572 108.368 28.3916 108.047 28.2145C107.727 28.0374 107.381 27.9488 107.01 27.9488C106.639 27.9488 106.293 28.0374 105.973 28.2145C105.661 28.3916 105.412 28.6572 105.226 29.0114C105.041 29.3571 104.948 29.7829 104.948 30.2889C104.948 31.0394 105.138 31.6213 105.517 32.0345C105.905 32.4392 106.39 32.6416 106.972 32.6416ZM111.534 30.2636C111.534 29.5637 111.678 28.9439 111.964 28.4042C112.26 27.8645 112.656 27.4471 113.153 27.152C113.659 26.8484 114.216 26.6966 114.823 26.6966C115.371 26.6966 115.848 26.8062 116.252 27.0255C116.666 27.2363 116.995 27.5019 117.239 27.8224V26.8104H118.694V33.78H117.239V32.7428C116.995 33.0717 116.661 33.3457 116.24 33.565C115.818 33.7842 115.338 33.8939 114.798 33.8939C114.199 33.8939 113.651 33.7421 113.153 33.4385C112.656 33.1265 112.26 32.6964 111.964 32.1483C111.678 31.5918 111.534 30.9635 111.534 30.2636ZM117.239 30.2889C117.239 29.8082 117.138 29.3908 116.936 29.0367C116.742 28.6825 116.484 28.4126 116.164 28.2271C115.843 28.0416 115.498 27.9488 115.127 27.9488C114.756 27.9488 114.41 28.0416 114.089 28.2271C113.769 28.4042 113.508 28.6698 113.305 29.024C113.111 29.3697 113.014 29.7829 113.014 30.2636C113.014 30.7443 113.111 31.1659 113.305 31.5285C113.508 31.8911 113.769 32.1694 114.089 32.3633C114.418 32.5489 114.764 32.6416 115.127 32.6416C115.498 32.6416 115.843 32.5489 116.164 32.3633C116.484 32.1778 116.742 31.908 116.936 31.5538C117.138 31.1912 117.239 30.7696 117.239 30.2889ZM120.107 30.2636C120.107 29.5637 120.25 28.9439 120.537 28.4042C120.832 27.8645 121.229 27.4471 121.726 27.152C122.232 26.8484 122.793 26.6966 123.408 26.6966C123.864 26.6966 124.311 26.7978 124.749 27.0002C125.196 27.1941 125.55 27.4555 125.812 27.7844V24.4198H127.266V33.78H125.812V32.7302C125.576 33.0675 125.247 33.3457 124.825 33.565C124.412 33.7842 123.935 33.8939 123.396 33.8939C122.789 33.8939 122.232 33.7421 121.726 33.4385C121.229 33.1265 120.832 32.6964 120.537 32.1483C120.25 31.5918 120.107 30.9635 120.107 30.2636ZM125.812 30.2889C125.812 29.8082 125.711 29.3908 125.508 29.0367C125.314 28.6825 125.057 28.4126 124.737 28.2271C124.416 28.0416 124.07 27.9488 123.699 27.9488C123.328 27.9488 122.983 28.0416 122.662 28.2271C122.342 28.4042 122.08 28.6698 121.878 29.024C121.684 29.3697 121.587 29.7829 121.587 30.2636C121.587 30.7443 121.684 31.1659 121.878 31.5285C122.08 31.8911 122.342 32.1694 122.662 32.3633C122.991 32.5489 123.337 32.6416 123.699 32.6416C124.07 32.6416 124.416 32.5489 124.737 32.3633C125.057 32.1778 125.314 31.908 125.508 31.5538C125.711 31.1912 125.812 30.7696 125.812 30.2889ZM135.469 33.8939C134.811 33.8939 134.217 33.7463 133.686 33.4512C133.154 33.1476 132.737 32.7259 132.433 32.1863C132.13 31.6381 131.978 31.0057 131.978 30.2889C131.978 29.5806 132.134 28.9523 132.446 28.4042C132.758 27.8561 133.184 27.4345 133.724 27.1393C134.263 26.8442 134.866 26.6966 135.532 26.6966C136.199 26.6966 136.802 26.8442 137.341 27.1393C137.881 27.4345 138.307 27.8561 138.619 28.4042C138.931 28.9523 139.087 29.5806 139.087 30.2889C139.087 30.9973 138.927 31.6255 138.606 32.1736C138.286 32.7217 137.847 33.1476 137.291 33.4512C136.743 33.7463 136.135 33.8939 135.469 33.8939ZM135.469 32.6416C135.84 32.6416 136.186 32.5531 136.506 32.376C136.835 32.1989 137.101 31.9333 137.303 31.5791C137.506 31.2249 137.607 30.7949 137.607 30.2889C137.607 29.7829 137.51 29.3571 137.316 29.0114C137.122 28.6572 136.865 28.3916 136.544 28.2145C136.224 28.0374 135.878 27.9488 135.507 27.9488C135.136 27.9488 134.79 28.0374 134.47 28.2145C134.158 28.3916 133.909 28.6572 133.724 29.0114C133.538 29.3571 133.445 29.7829 133.445 30.2889C133.445 31.0394 133.635 31.6213 134.015 32.0345C134.403 32.4392 134.887 32.6416 135.469 32.6416ZM144.029 26.6966C144.577 26.6966 145.066 26.8104 145.496 27.0381C145.935 27.2658 146.276 27.6031 146.521 28.05C146.765 28.497 146.887 29.0367 146.887 29.6691V33.78H145.458V29.8841C145.458 29.2601 145.302 28.7837 144.99 28.4548C144.678 28.1175 144.252 27.9488 143.713 27.9488C143.173 27.9488 142.743 28.1175 142.422 28.4548C142.11 28.7837 141.954 29.2601 141.954 29.8841V33.78H140.512V26.8104H141.954V27.6073C142.19 27.3206 142.49 27.0971 142.852 26.9369C143.223 26.7767 143.616 26.6966 144.029 26.6966ZM153.695 27.9868V31.8447C153.695 32.1061 153.754 32.2959 153.872 32.4139C153.998 32.5236 154.209 32.5784 154.504 32.5784H155.39V33.78H154.251C153.602 33.78 153.105 33.6282 152.759 33.3247C152.413 33.0211 152.24 32.5278 152.24 31.8447V27.9868H151.418V26.8104H152.24V25.0775H153.695V26.8104H155.39V27.9868H153.695ZM160.324 26.6966C160.855 26.6966 161.327 26.8104 161.741 27.0381C162.162 27.2658 162.491 27.6031 162.727 28.05C162.972 28.497 163.094 29.0367 163.094 29.6691V33.78H161.665V29.8841C161.665 29.2601 161.509 28.7837 161.197 28.4548C160.885 28.1175 160.459 27.9488 159.919 27.9488C159.379 27.9488 158.949 28.1175 158.629 28.4548C158.317 28.7837 158.161 29.2601 158.161 29.8841V33.78H156.719V24.4198H158.161V27.62C158.405 27.3248 158.713 27.0971 159.084 26.9369C159.464 26.7767 159.877 26.6966 160.324 26.6966ZM171.321 30.1245C171.321 30.3859 171.304 30.622 171.27 30.8328H165.945C165.987 31.3894 166.194 31.8363 166.565 32.1736C166.936 32.5109 167.391 32.6796 167.931 32.6796C168.707 32.6796 169.255 32.3549 169.575 31.7056H171.131C170.92 32.3465 170.537 32.8735 169.98 33.2867C169.432 33.6915 168.749 33.8939 167.931 33.8939C167.265 33.8939 166.666 33.7463 166.135 33.4512C165.612 33.1476 165.199 32.7259 164.895 32.1863C164.6 31.6381 164.453 31.0057 164.453 30.2889C164.453 29.5721 164.596 28.9439 164.883 28.4042C165.178 27.8561 165.587 27.4345 166.11 27.1393C166.641 26.8442 167.248 26.6966 167.931 26.6966C168.589 26.6966 169.175 26.8399 169.689 27.1267C170.204 27.4134 170.604 27.8181 170.891 28.341C171.178 28.8554 171.321 29.4499 171.321 30.1245ZM169.816 29.6691C169.807 29.1378 169.618 28.712 169.247 28.3916C168.876 28.0711 168.416 27.9109 167.868 27.9109C167.37 27.9109 166.944 28.0711 166.59 28.3916C166.236 28.7036 166.025 29.1294 165.958 29.6691H169.816Z" fill="white"/>
<path d="M74.4575 57.176H68.9555L68.0735 59.78H64.3145L69.6485 45.038H73.8065L79.1405 59.78H75.3395L74.4575 57.176ZM73.5335 54.404L71.7065 49.007L69.9005 54.404H73.5335ZM84.3549 49.721C84.7049 49.175 85.1879 48.734 85.8039 48.398C86.4199 48.062 87.1409 47.894 87.9669 47.894C88.9329 47.894 89.8079 48.139 90.5919 48.629C91.3759 49.119 91.9919 49.819 92.4399 50.729C92.9019 51.639 93.1329 52.696 93.1329 53.9C93.1329 55.104 92.9019 56.168 92.4399 57.092C91.9919 58.002 91.3759 58.709 90.5919 59.213C89.8079 59.703 88.9329 59.948 87.9669 59.948C87.1549 59.948 86.4339 59.78 85.8039 59.444C85.1879 59.108 84.7049 58.674 84.3549 58.142V65.366H80.7639V48.062H84.3549V49.721ZM89.4789 53.9C89.4789 53.004 89.2269 52.304 88.7229 51.8C88.2329 51.282 87.6239 51.023 86.8959 51.023C86.1819 51.023 85.5729 51.282 85.0689 51.8C84.5789 52.318 84.3339 53.025 84.3339 53.921C84.3339 54.817 84.5789 55.524 85.0689 56.042C85.5729 56.56 86.1819 56.819 86.8959 56.819C87.6099 56.819 88.2189 56.56 88.7229 56.042C89.2269 55.51 89.4789 54.796 89.4789 53.9ZM98.6078 49.721C98.9578 49.175 99.4408 48.734 100.057 48.398C100.673 48.062 101.394 47.894 102.22 47.894C103.186 47.894 104.061 48.139 104.845 48.629C105.629 49.119 106.245 49.819 106.693 50.729C107.155 51.639 107.386 52.696 107.386 53.9C107.386 55.104 107.155 56.168 106.693 57.092C106.245 58.002 105.629 58.709 104.845 59.213C104.061 59.703 103.186 59.948 102.22 59.948C101.408 59.948 100.687 59.78 100.057 59.444C99.4408 59.108 98.9578 58.674 98.6078 58.142V65.366H95.0168V48.062H98.6078V49.721ZM103.732 53.9C103.732 53.004 103.48 52.304 102.976 51.8C102.486 51.282 101.877 51.023 101.149 51.023C100.435 51.023 99.8258 51.282 99.3218 51.8C98.8318 52.318 98.5868 53.025 98.5868 53.921C98.5868 54.817 98.8318 55.524 99.3218 56.042C99.8258 56.56 100.435 56.819 101.149 56.819C101.863 56.819 102.472 56.56 102.976 56.042C103.48 55.51 103.732 54.796 103.732 53.9ZM119.054 59.927C117.976 59.927 117.01 59.752 116.156 59.402C115.302 59.052 114.616 58.534 114.098 57.848C113.594 57.162 113.328 56.336 113.3 55.37H117.122C117.178 55.916 117.367 56.336 117.689 56.63C118.011 56.91 118.431 57.05 118.949 57.05C119.481 57.05 119.901 56.931 120.209 56.693C120.517 56.441 120.671 56.098 120.671 55.664C120.671 55.3 120.545 54.999 120.293 54.761C120.055 54.523 119.754 54.327 119.39 54.173C119.04 54.019 118.536 53.844 117.878 53.648C116.926 53.354 116.149 53.06 115.547 52.766C114.945 52.472 114.427 52.038 113.993 51.464C113.559 50.89 113.342 50.141 113.342 49.217C113.342 47.845 113.839 46.774 114.833 46.004C115.827 45.22 117.122 44.828 118.718 44.828C120.342 44.828 121.651 45.22 122.645 46.004C123.639 46.774 124.171 47.852 124.241 49.238H120.356C120.328 48.762 120.153 48.391 119.831 48.125C119.509 47.845 119.096 47.705 118.592 47.705C118.158 47.705 117.808 47.824 117.542 48.062C117.276 48.286 117.143 48.615 117.143 49.049C117.143 49.525 117.367 49.896 117.815 50.162C118.263 50.428 118.963 50.715 119.915 51.023C120.867 51.345 121.637 51.653 122.225 51.947C122.827 52.241 123.345 52.668 123.779 53.228C124.213 53.788 124.43 54.509 124.43 55.391C124.43 56.231 124.213 56.994 123.779 57.68C123.359 58.366 122.743 58.912 121.931 59.318C121.119 59.724 120.16 59.927 119.054 59.927ZM133.171 56.735V59.78H131.344C130.042 59.78 129.027 59.465 128.299 58.835C127.571 58.191 127.207 57.148 127.207 55.706V51.044H125.779V48.062H127.207V45.206H130.798V48.062H133.15V51.044H130.798V55.748C130.798 56.098 130.882 56.35 131.05 56.504C131.218 56.658 131.498 56.735 131.89 56.735H133.171ZM140.505 59.948C139.357 59.948 138.321 59.703 137.397 59.213C136.487 58.723 135.766 58.023 135.234 57.113C134.716 56.203 134.457 55.139 134.457 53.921C134.457 52.717 134.723 51.66 135.255 50.75C135.787 49.826 136.515 49.119 137.439 48.629C138.363 48.139 139.399 47.894 140.547 47.894C141.695 47.894 142.731 48.139 143.655 48.629C144.579 49.119 145.307 49.826 145.839 50.75C146.371 51.66 146.637 52.717 146.637 53.921C146.637 55.125 146.364 56.189 145.818 57.113C145.286 58.023 144.551 58.723 143.613 59.213C142.689 59.703 141.653 59.948 140.505 59.948ZM140.505 56.84C141.191 56.84 141.772 56.588 142.248 56.084C142.738 55.58 142.983 54.859 142.983 53.921C142.983 52.983 142.745 52.262 142.269 51.758C141.807 51.254 141.233 51.002 140.547 51.002C139.847 51.002 139.266 51.254 138.804 51.758C138.342 52.248 138.111 52.969 138.111 53.921C138.111 54.859 138.335 55.58 138.783 56.084C139.245 56.588 139.819 56.84 140.505 56.84ZM152.133 50.015C152.553 49.371 153.078 48.867 153.708 48.503C154.338 48.125 155.038 47.936 155.808 47.936V51.737H154.821C153.925 51.737 153.253 51.933 152.805 52.325C152.357 52.703 152.133 53.375 152.133 54.341V59.78H148.542V48.062H152.133V50.015ZM168.571 53.732C168.571 54.068 168.55 54.418 168.508 54.782H160.381C160.437 55.51 160.668 56.07 161.074 56.462C161.494 56.84 162.005 57.029 162.607 57.029C163.503 57.029 164.126 56.651 164.476 55.895H168.298C168.102 56.665 167.745 57.358 167.227 57.974C166.723 58.59 166.086 59.073 165.316 59.423C164.546 59.773 163.685 59.948 162.733 59.948C161.585 59.948 160.563 59.703 159.667 59.213C158.771 58.723 158.071 58.023 157.567 57.113C157.063 56.203 156.811 55.139 156.811 53.921C156.811 52.703 157.056 51.639 157.546 50.729C158.05 49.819 158.75 49.119 159.646 48.629C160.542 48.139 161.571 47.894 162.733 47.894C163.867 47.894 164.875 48.132 165.757 48.608C166.639 49.084 167.325 49.763 167.815 50.645C168.319 51.527 168.571 52.556 168.571 53.732ZM164.896 52.787C164.896 52.171 164.686 51.681 164.266 51.317C163.846 50.953 163.321 50.771 162.691 50.771C162.089 50.771 161.578 50.946 161.158 51.296C160.752 51.646 160.5 52.143 160.402 52.787H164.896Z" fill="white"/>
<defs>
<clipPath id="clip0_1076_5336">
<rect width="52" height="52" fill="white" transform="translate(3 16.78)"/>
</clipPath>
</defs>
</svg>
