<svg width="36" height="44" viewBox="0 0 36 44" fill="white" xmlns="http://www.w3.org/2000/svg">
<path d="M17.9986 0C10.8042 0 4.9082 5.8784 4.9082 13.053C4.9082 15.833 5.79612 18.4166 7.29872 20.5401L16.401 36.2758C17.6757 37.9412 18.5231 37.6248 19.5831 36.1878L29.623 19.1026C29.8254 18.7356 29.9847 18.3449 30.1233 17.9458C30.7604 16.3933 31.088 14.7312 31.0878 13.053C31.0882 5.8784 25.194 0 17.9986 0ZM17.9986 6.116C21.8733 6.116 24.9542 9.18984 24.9542 13.053C24.9542 16.9162 21.8733 19.9888 17.9986 19.9888C14.1244 19.9888 11.0422 16.9167 11.0422 13.053C11.0422 9.18984 14.1244 6.11644 17.9986 6.11644V6.116Z" fill="white" fill-opacity="1"/>
<path d="M26.3221 21.5195L26.301 21.575C26.3076 21.5583 26.3129 21.5411 26.3195 21.5244L26.3221 21.5195ZM10.963 30.3851C4.74759 31.2633 0.400391 33.3643 0.400391 36.4571C0.400391 40.623 7.66391 44 18.0004 44C28.3369 44 35.6004 40.623 35.6004 36.4571C35.6004 33.3643 31.2536 31.2633 25.0386 30.3851L24.1775 31.8512C28.8618 32.5011 32.0804 33.8668 32.0804 35.4517C32.0804 37.6737 25.7765 39.4746 18.0004 39.4746C10.2243 39.4746 3.92039 37.6737 3.92039 35.4517C3.91995 33.8721 7.11743 32.5077 11.8162 31.8551C11.5324 31.365 11.2468 30.8757 10.9626 30.3851H10.963Z" fill="white" fill-opacity="1"/>
</svg>

