<svg  viewBox="0 0 36 40" fill="none" xmlns="http://www.w3.org/2000/svg">
<g clip-path="url(#clip0_1076_5331)">
<path d="M16.4759 19.3723L0.146484 36.4806C0.329862 37.1305 0.659398 37.7298 1.1099 38.2328C1.5604 38.7358 2.11995 39.1291 2.74576 39.3827C3.37157 39.6363 4.04708 39.7435 4.72065 39.696C5.39422 39.6485 6.04801 39.4477 6.63206 39.1088L25.0057 28.6444L16.4759 19.3723Z" fill="#EA4335"/>
<path d="M32.9866 16.4643L25.0412 11.9133L16.0977 19.7616L25.0776 28.6199L32.9625 24.1177C33.661 23.752 34.246 23.202 34.6543 22.5274C35.0625 21.8529 35.2783 21.0794 35.2783 20.291C35.2783 19.5025 35.0625 18.7291 34.6543 18.0545C34.246 17.3799 33.661 16.83 32.9625 16.4642H32.9869L32.9866 16.4643Z" fill="#FBBC04"/>
<path d="M0.146123 4.0166C0.0474211 4.3815 -0.00171266 4.75802 4.55644e-05 5.13603V35.3613C0.00106891 35.7392 0.0501555 36.1154 0.146123 36.4809L17.0353 19.8106L0.146123 4.0166Z" fill="#4285F4"/>
<path d="M16.5976 20.2489L25.0423 11.9138L6.69297 1.40059C6.00259 0.99627 5.21739 0.782149 4.41733 0.780038C2.43191 0.776179 0.686421 2.09391 0.146484 4.00463L16.5976 20.2489Z" fill="#34A853"/>
</g>
<defs>
<clipPath id="clip0_1076_5331">
<rect width="35.2792" height="39" fill="white" transform="translate(0 0.780029)"/>
</clipPath>
</defs>
</svg>
