<svg width="24" height="20" viewBox="0 0 24 20" fill="none" xmlns="http://www.w3.org/2000/svg">
<path d="M23.8428 4.97453C23.8428 2.86516 22.2912 1.16828 20.374 1.16828C17.7772 1.04687 15.1287 1 12.4222 1H11.5784C8.87841 1 6.22529 1.04687 3.62841 1.16875C1.71591 1.16875 0.164348 2.875 0.164348 4.98437C0.0471601 6.65266 -0.00252745 8.32141 0.000285051 9.99016C-0.00440245 11.6589 0.0487226 13.3292 0.15966 15.0011C0.15966 17.1105 1.71122 18.8214 3.62372 18.8214C6.35185 18.948 9.15029 19.0042 11.9956 18.9995C14.8456 19.0089 17.6362 18.9495 20.3675 18.8214C22.2847 18.8214 23.8362 17.1105 23.8362 15.0011C23.9487 13.3277 24.0003 11.6589 23.9956 9.98547C24.0062 8.31672 23.9553 6.64641 23.8428 4.97453ZM9.70341 14.5886V5.37766L16.5003 9.98078L9.70341 14.5886Z" fill="white" stroke="white" stroke-width="0.046875"/>
</svg>
